<svg width="692" height="683" viewBox="0 0 692 683" fill="none" xmlns="http://www.w3.org/2000/svg">
<path d="M14 428.5V660.5C14 666.023 18.4772 670.5 24 670.5H288.5" stroke="white" stroke-width="25" stroke-linecap="round"/>
<path fill-rule="evenodd" clip-rule="evenodd" d="M13.5006 13.5V13.5C13.1286 13.5 12.8868 13.8919 13.0538 14.2244V14.2244L209.197 404.724C209.282 404.893 209.454 405 209.644 405V405C210.016 405 210.257 404.608 210.09 404.276L32.5047 50.7212C24.1541 34.096 36.2404 14.5 54.8449 14.5H216.001C216.277 14.5 216.501 14.2761 216.501 14C216.501 13.7239 216.277 13.5 216.001 13.5H13.5006ZM260.319 504.276C260.234 504.107 260.061 504 259.872 504V504C259.5 504 259.258 504.392 259.425 504.724L342.335 669.79C342.463 670.044 342.75 670.178 343.027 670.112V670.112C343.305 670.046 343.501 669.799 343.501 669.513V68.5C343.501 68.2239 343.277 68 343.001 68C342.724 68 342.501 68.2239 342.501 68.5V562.42C342.501 588.776 306.99 597.193 295.16 573.641L260.319 504.276Z" fill="white"/>
<path d="M259.425 504.724L248.255 510.335L259.425 504.724ZM260.319 504.276L249.149 509.886L260.319 504.276ZM210.09 404.276L198.92 409.886L210.09 404.276ZM209.197 404.724L198.027 410.335L209.197 404.724ZM295.16 573.641L283.99 579.252L295.16 573.641ZM342.335 669.79L331.165 675.4L342.335 669.79ZM220.367 399.114L24.2239 8.61383L1.88374 19.835L198.027 410.335L220.367 399.114ZM21.3346 56.3318L198.92 409.886L221.26 398.665L43.6748 45.1106L21.3346 56.3318ZM216.001 2H54.8449V27H216.001V2ZM204.001 14C204.001 7.37252 209.373 2 216.001 2V27C223.18 27 229.001 21.1798 229.001 14H204.001ZM216.001 26C209.373 26 204.001 20.6275 204.001 14H229.001C229.001 6.82023 223.18 1 216.001 1V26ZM13.5006 26H216.001V1H13.5006V26ZM353.506 664.179L270.596 499.114L248.255 510.335L331.165 675.4L353.506 664.179ZM331.001 68.5V669.513H356.001V68.5H331.001ZM343.001 80.5C336.373 80.5 331.001 75.1272 331.001 68.5H356.001C356.001 61.3205 350.181 55.5 343.001 55.5V80.5ZM355.001 68.5C355.001 75.1272 349.628 80.5 343.001 80.5V55.5C335.821 55.5 330.001 61.3205 330.001 68.5H355.001ZM355.001 562.42V68.5H330.001V562.42H355.001ZM249.149 509.886L283.99 579.252L306.331 568.031L271.489 498.665L249.149 509.886ZM345.91 682.275C351.824 680.873 356.001 675.592 356.001 669.513H331.001C331.001 664.006 334.785 659.22 340.144 657.949L345.91 682.275ZM259.872 491.5C250.198 491.5 243.913 501.69 248.255 510.335L270.596 499.114C274.604 507.094 268.803 516.5 259.872 516.5V491.5ZM259.872 516.5C255.335 516.5 251.186 513.941 249.149 509.886L271.489 498.665C269.283 494.272 264.788 491.5 259.872 491.5V516.5ZM209.644 417.5C219.319 417.5 225.602 407.309 221.26 398.665L198.92 409.886C194.912 401.907 200.713 392.5 209.644 392.5V417.5ZM198.027 410.335C200.233 414.728 204.728 417.5 209.644 417.5V392.5C214.181 392.5 218.33 395.059 220.367 399.114L198.027 410.335ZM330.001 562.42C330.001 575.598 312.245 579.806 306.331 568.031L283.99 579.252C301.735 614.58 355.001 601.954 355.001 562.42H330.001ZM43.6748 45.1106C39.4995 36.798 45.5427 27 54.8449 27V2C26.9381 2 8.80875 31.3941 21.3346 56.3318L43.6748 45.1106ZM331.165 675.4C333.894 680.832 339.996 683.677 345.91 682.275L340.144 657.949C345.503 656.679 351.033 659.257 353.506 664.179L331.165 675.4ZM13.5006 1C3.8263 1 -2.45857 11.1899 1.88374 19.835L24.2239 8.61383C28.2322 16.5939 22.4308 26 13.5006 26V1Z" fill="white"/>
<path d="M678 324.5V510.492C678 575.225 662.368 670.5 518.006 670.5H392.5" stroke="white" stroke-width="25" stroke-linecap="round"/>
<path d="M60 457L236 457" stroke="white" stroke-width="25" stroke-linecap="round"/>
<path d="M392 311.5H542" stroke="white" stroke-width="25" stroke-linecap="round"/>
<path d="M267 13L494 13" stroke="white" stroke-width="25" stroke-linecap="round"/>
<path d="M13 381.5L13 13.5" stroke="white" stroke-width="25" stroke-linecap="round"/>
<mask id="path-9-inside-1_15_42" fill="white">
<path d="M455 11C455 5.47714 459.477 1 465 1H542C624.843 1 692 68.1573 692 151V174C692 256.843 624.843 324 542 324H465C459.477 324 455 319.523 455 314V11Z"/>
</mask>
<path d="M455 11C455 -8.32997 470.67 -24 490 -24H542C638.65 -24 717 54.3502 717 151H667C667 81.9644 611.036 26 542 26H465C459.477 26 455 26 455 26V11ZM717 174C717 270.65 638.65 349 542 349H490C470.67 349 455 333.33 455 314V299C455 299 459.477 299 465 299H542C611.036 299 667 243.036 667 174H717ZM455 324V1V324ZM542 -24C638.65 -24 717 54.3502 717 151V174C717 270.65 638.65 349 542 349V299C611.036 299 667 243.036 667 174V151C667 81.9644 611.036 26 542 26V-24Z" fill="white" mask="url(#path-9-inside-1_15_42)"/>
</svg>
