<svg width="652" height="657" viewBox="0 0 652 657" fill="none" xmlns="http://www.w3.org/2000/svg">
<path fill-rule="evenodd" clip-rule="evenodd" d="M354.5 353.173C348.977 353.173 344.5 357.651 344.5 363.173V622C344.5 627.523 348.977 632 354.5 632H474.5C557.343 632 624.5 564.843 624.5 482V314.304C624.5 303.964 608.694 299.206 601.558 306.688C574.24 335.328 535.704 353.173 493 353.173H354.5Z" fill="white"/>
<path d="M344.5 38.1567C344.5 32.6339 348.977 28.1567 354.5 28.1567H481.157C560.323 28.1567 624.5 92.3337 624.5 171.5V171.5C624.5 250.666 560.323 314.843 481.157 314.843H354.5C348.977 314.843 344.5 310.366 344.5 304.843V38.1567Z" fill="white"/>
<path d="M293 30H39.2396C31.7915 30 26.9573 37.8504 30.31 44.5013L295.744 571.062L296.174 571.887C297.922 575.245 303 574.002 303 570.217V40C303 34.4772 298.523 30 293 30Z" fill="white"/>
<path fill-rule="evenodd" clip-rule="evenodd" d="M38.9579 131.458C34.2602 121.99 20 125.334 20 135.903V413C20 418.523 24.4771 423 30 423H167.494C174.915 423 179.75 415.202 176.452 408.555L38.9579 131.458Z" fill="white"/>
<path fill-rule="evenodd" clip-rule="evenodd" d="M30 452.015C24.4772 452.015 20 456.492 20 462.015V617.985C20 623.508 24.4772 627.985 30 627.985H273.532C280.966 627.985 285.801 620.162 282.476 613.513L204.487 457.542C202.793 454.155 199.33 452.015 195.542 452.015H30Z" fill="white"/>
</svg>
