<svg width="684" height="668" viewBox="0 0 684 668" fill="none" xmlns="http://www.w3.org/2000/svg">
<path d="M6 420.5V652.5C6 658.023 10.4772 662.5 16 662.5H280.5" stroke="white" stroke-width="10" stroke-linecap="round"/>
<path fill-rule="evenodd" clip-rule="evenodd" d="M5.50065 5.5C5.12856 5.5 4.88683 5.89192 5.05384 6.22442L209.233 412.724C209.318 412.893 209.491 413 209.68 413C210.052 413 210.294 412.608 210.127 412.276L24.5047 42.7212C16.1541 26.096 28.2404 6.5 46.8449 6.5H208.001C208.277 6.5 208.501 6.27614 208.501 6C208.501 5.72386 208.277 5.5 208.001 5.5H5.50065ZM245.947 483.589C245.71 483.118 245 483.286 245 483.814C245 483.892 245.018 483.968 245.053 484.038L334.335 661.79C334.463 662.044 334.75 662.178 335.027 662.112C335.305 662.046 335.501 661.799 335.501 661.513V60.5C335.501 60.2239 335.277 60 335.001 60C334.724 60 334.501 60.2239 334.501 60.5V560.19C334.501 585.104 300.933 593.061 289.75 570.797L245.947 483.589Z" fill="white"/>
<path d="M245.053 484.038L249.521 481.794L245.053 484.038ZM245.947 483.589L250.415 481.345L245.947 483.589ZM210.127 412.276L205.659 414.52L210.127 412.276ZM209.233 412.724L204.765 414.969L209.233 412.724ZM289.75 570.797L285.282 573.042L289.75 570.797ZM334.335 661.79L338.803 659.545L334.335 661.79ZM213.701 410.48L9.52189 3.98019L0.585802 8.46866L204.765 414.969L213.701 410.48ZM20.0367 44.9654L205.659 414.52L214.595 410.031L28.9728 40.4769L20.0367 44.9654ZM208.001 1.5H46.8449V11.5H208.001V1.5ZM203.501 6C203.501 3.51469 205.515 1.5 208.001 1.5V11.5C211.038 11.5 213.501 9.03759 213.501 6H203.501ZM208.001 10.5C205.515 10.5 203.501 8.48531 203.501 6H213.501C213.501 2.96241 211.038 0.5 208.001 0.5V10.5ZM5.50065 10.5H208.001V0.5H5.50065V10.5ZM338.803 659.545L249.521 481.794L240.585 486.282L329.867 664.034L338.803 659.545ZM330.501 60.5V661.513H340.501V60.5H330.501ZM335.001 65C332.515 65 330.501 62.9852 330.501 60.5H340.501C340.501 57.4625 338.038 55 335.001 55V65ZM339.501 60.5C339.501 62.9852 337.486 65 335.001 65V55C331.963 55 329.501 57.4625 329.501 60.5H339.501ZM339.501 560.19V60.5H329.501V560.19H339.501ZM241.479 485.833L285.282 573.042L294.218 568.553L250.415 481.345L241.479 485.833ZM336.18 666.977C338.713 666.377 340.501 664.116 340.501 661.513H330.501C330.501 659.481 331.897 657.716 333.874 657.247L336.18 666.977ZM240 483.814C240 484.671 240.2 485.516 240.585 486.282L249.521 481.794C249.836 482.421 250 483.112 250 483.814H240ZM250 483.814C250 488.558 243.608 490.073 241.479 485.833L250.415 481.345C247.812 476.164 240 478.015 240 483.814H250ZM209.68 418C213.773 418 216.432 413.689 214.595 410.031L205.659 414.52C204.156 411.527 206.331 408 209.68 408V418ZM204.765 414.969C205.699 416.827 207.601 418 209.68 418V408C211.382 408 212.938 408.96 213.701 410.48L204.765 414.969ZM329.501 560.19C329.501 579.833 303.035 586.106 294.218 568.553L285.282 573.042C298.831 600.015 339.501 590.375 339.501 560.19H329.501ZM28.9728 40.4769C22.2923 27.1768 31.9613 11.5 46.8449 11.5V1.5C24.5195 1.5 10.016 25.0152 20.0367 44.9654L28.9728 40.4769ZM329.867 664.034C331.035 666.359 333.648 667.578 336.18 666.977L333.874 657.247C335.851 656.778 337.891 657.73 338.803 659.545L329.867 664.034ZM5.50065 0.5C1.40765 0.5 -1.25133 4.81113 0.585802 8.46866L9.52189 3.98019C11.025 6.97271 8.84946 10.5 5.50065 10.5V0.5Z" fill="white"/>
<path d="M670 289V502.492C670 567.225 654.368 662.5 510.006 662.5H384.5" stroke="white" stroke-width="10" stroke-linecap="round"/>
<path d="M34 449L228 449" stroke="white" stroke-width="10" stroke-linecap="round"/>
<path d="M384 303.5H534" stroke="white" stroke-width="10" stroke-linecap="round"/>
<path d="M259 5L486 5.00002" stroke="white" stroke-width="10" stroke-linecap="round"/>
<path d="M5 386L4.99999 73" stroke="white" stroke-width="10" stroke-linecap="round"/>
<mask id="path-9-inside-1_10_208" fill="white">
<path d="M447 10C447 4.47715 451.477 0 457 0H534C616.843 0 684 67.1573 684 150V158.5C684 241.343 616.843 308.5 534 308.5H457C451.477 308.5 447 304.023 447 298.5V10Z"/>
</mask>
<path d="M447 10C447 -1.04569 455.954 -10 467 -10H534C622.366 -10 694 61.6344 694 150H674C674 72.6801 611.32 10 534 10H457C451.477 10 447 10 447 10ZM694 158.5C694 246.866 622.366 318.5 534 318.5H467C455.954 318.5 447 309.546 447 298.5C447 298.5 451.477 298.5 457 298.5H534C611.32 298.5 674 235.82 674 158.5H694ZM447 308.5V0V308.5ZM534 -10C622.366 -10 694 61.6344 694 150V158.5C694 246.866 622.366 318.5 534 318.5V298.5C611.32 298.5 674 235.82 674 158.5V150C674 72.6801 611.32 10 534 10V-10Z" fill="white" mask="url(#path-9-inside-1_10_208)"/>
</svg>
