<svg width="652" height="657" viewBox="0 0 652 657" fill="none" xmlns="http://www.w3.org/2000/svg">
<path fill-rule="evenodd" clip-rule="evenodd" d="M344.5 353.173V632H474.5C557.343 632 624.5 564.843 624.5 482V275.396C598.983 321.758 549.66 353.173 493 353.173H344.5Z" fill="white"/>
<path d="M344.5 28.1567H481.157C560.323 28.1567 624.5 92.3337 624.5 171.5V171.5C624.5 250.666 560.323 314.843 481.157 314.843H344.5V28.1567Z" fill="white"/>
<path d="M303 30H23L295.744 571.062L303 585V570.217V30Z" fill="white"/>
<path fill-rule="evenodd" clip-rule="evenodd" d="M20 93.2515V423H183.62L20 93.2515Z" fill="white"/>
<path fill-rule="evenodd" clip-rule="evenodd" d="M20 452.015V627.985H289.712L201.723 452.015H20Z" fill="white"/>
</svg>
